<?xml version="1.0" encoding="utf-8"?>
<!-- Generator: Adobe Illustrator 19.1.0, SVG Export Plug-In . SVG Version: 6.00 Build 0)  -->
<svg version="1.1" id="Layer_1" xmlns="http://www.w3.org/2000/svg" xmlns:xlink="http://www.w3.org/1999/xlink" x="0px" y="0px" viewBox="0 0 595.3 5952.8" enable-background="new 0 0 595.3 5952.8" xml:space="preserve">
    <polygon class="arrow" points="324.5,5394.6 275.4,5394.6 275.4,5439.6 445,5620.5 59.1,5620.5 59.1,5689.7 445,5689.7 275.4,5870.7 275.4,5915.7 
   324.5,5915.7 575.2,5655.1 " />
    <polygon class="arrow" points="575.2,5059.8 288.6,4841.4 240.2,4850 248,4894.3 422.7,5025.2 59.1,5025.2 59.1,5094.4 423.7,5094.4 249,5225.4 
   241.2,5269.7 289.6,5278.2 " />
    <polygon class="arrow" points="505.2,4464.6 479.8,4430 202.7,4284.8 156,4300.2 170.1,4342.9 329.8,4430 59.1,4430 59.1,4499.2 329.8,4499.2 
   170.1,4586.2 156,4629 202.7,4644.4 479.8,4499.2 " />
    <polygon class="arrow" points="440.2,3869.3 406.8,3834.7 116.2,3752.4 73.5,3776.7 95.7,3815.8 156.4,3834.7 59.1,3834.7 59.1,3903.9 
   156.4,3903.9 95.7,3922.8 73.5,3961.9 116.2,3986.2 406.7,3903.9 406.7,3903.9 " />
    <polygon class="arrow" points="379.4,3274 346,3239.4 139.3,3222.2 120.6,3239.4 59.1,3239.4 59.1,3308.6 120.6,3308.6 139.3,3325.9 345.8,3308.6 
   346,3308.6 " />
    <polygon class="arrow" points="235.4,2713.3 268.8,2678.7 235.4,2644.1 59.1,2644.1 59.1,2713.3 " />
    <polygon class="arrow" points="159.2,2118.1 192.6,2083.5 159.2,2048.9 59.1,2048.9 59.1,2118.1 " />
    <polygon class="arrow" points="84.1,892.9 59.1,858.3 59.1,927.5 " />
    <polygon class="arrow" points="97.2,1522.8 130.6,1488.2 97.2,1453.6 59.1,1453.6 59.1,1522.8 " />
</svg>
