<svg id="SvgjsSvg1000" xmlns="http://www.w3.org/2000/svg" version="1.1" xmlns:xlink="http://www.w3.org/1999/xlink" xmlns:svgjs="http://svgjs.com/svgjs" width="20.70710678118644" height="18.707106781186553"><defs id="SvgjsDefs1001"><clipPath id="SvgjsClipPath1009"><path id="SvgjsPath1008" d="M1584 383C1588.97 383 1593 387.029 1593 392C1593 396.971 1588.97 401 1584 401C1579.03 401 1575 396.971 1575 392C1575 387.029 1579.03 383 1584 383Z " fill="#ffffff"></path></clipPath></defs><path id="SvgjsPath1007" d="M1584 383C1588.97 383 1593 387.029 1593 392C1593 396.971 1588.97 401 1584 401C1579.03 401 1575 396.971 1575 392C1575 387.029 1579.03 383 1584 383Z " fill-opacity="0" fill="#ffffff" stroke-dasharray="0" stroke-linejoin="miter" stroke-linecap="butt" stroke-opacity="1" stroke="#ffffff" stroke-miterlimit="50" stroke-width="4" clip-path="url(&quot;#SvgjsClipPath1009&quot;)" transform="matrix(1,0,0,1,-1575,-383)"></path><path id="SvgjsPath1010" d="M1591 397L1595 401 " fill-opacity="0" fill="#ffffff" stroke-dasharray="0" stroke-linejoin="miter" stroke-linecap="butt" stroke-opacity="1" stroke="#ffffff" stroke-miterlimit="50" stroke-width="2" transform="matrix(1,0,0,1,-1575,-383)"></path></svg>