<svg xmlns="http://www.w3.org/2000/svg" viewBox="0 0 700.18 65.19"><title>Ресурс 3</title><g id="Слой_2" data-name="Слой 2"><g id="Layer_1" data-name="Layer 1"><path d="M13,21.15V63.94H0V1.25H17L32.26,33.18,47.14,1.25h17V63.94H50.31V21.15l-14,29.5H27Z"/><path d="M80.07,32.35C80.07,13.29,92.52,0,111.16,0s31.09,13.29,31.09,32.35c0,19.31-12.45,32.85-31.09,32.85S80.07,51.65,80.07,32.35Zm48.31,0c0-12.2-6.69-20.56-17.22-20.56S93.94,20.14,93.94,32.35c0,12.54,6.69,21.06,17.22,21.06S128.38,44.88,128.38,32.35Z"/><path d="M154.87,32.6C154.87,13,167.07,0,185.54,0c16.72,0,22.82,8.94,23.82,13v6.35H198.41c-.5-2.42-3.68-7.61-12.7-7.61-10.36,0-17,7.86-17,20.73,0,12.62,6.6,20.81,17,20.81,8.86,0,12.54-5.52,13.12-7.94h10.95v6.35c-1.34,5-8.69,13.46-24.24,13.46C166.32,65.19,154.87,51.82,154.87,32.6Z"/><path d="M241.69,63.94H227.82V1.25h13.87V28.17L264.34,1.25h10.95V7.52L254.82,31.34l22.82,26.08v6.52h-12.2L241.69,36.69Z"/><path d="M292.5,1.25h25c12.2,0,19.81,6.6,19.81,16.8,0,6.18-3.18,11-8.36,13,6.69,2.09,10.7,7.44,10.7,14.13,0,11.45-8.11,18.72-21.81,18.72H292.5Zm22.82,25.24c5.27,0,8.44-2.67,8.44-7s-3-7.19-8.11-7.19h-9.86V26.49Zm1.09,26.41c6.27,0,9.61-3.68,9.61-8.19S322.93,37,316.49,37h-10.7V52.91Z"/><path d="M350.25,63.94V58.09L371.57,1.25h14.13l21.23,56v6.69h-12L390,50.65h-23.9l-4.76,13.29Zm27.92-47.72L370,39.28h16.38Z"/><path d="M442.1,32.6C442.1,13,454.3,0,472.77,0c16.72,0,22.82,8.94,23.82,13v6.35H485.65c-.5-2.42-3.68-7.61-12.7-7.61-10.36,0-17,7.86-17,20.73,0,12.62,6.6,20.81,17,20.81,8.86,0,12.54-5.52,13.12-7.94H497v6.35c-1.34,5-8.69,13.46-24.24,13.46C453.55,65.19,442.1,51.82,442.1,32.6Z"/><path d="M515.05,1.25h13.87V42.88L554.75,1.25h13.79V63.94H554.75V22.65L528.93,63.94H515.05Z"/><path d="M600.64,13H582.75V1.25h49.73V13h-18v50.9H600.64Z"/><path d="M646.69,1.25h13.87V42.88L686.39,1.25h13.79V63.94H686.39V22.65L660.56,63.94H646.69Z"/></g></g></svg>